<?xml version="1.0" encoding="UTF-8" standalone="no"?>
<!DOCTYPE svg PUBLIC "-//W3C//DTD SVG 1.1//EN" "http://www.w3.org/Graphics/SVG/1.1/DTD/svg11.dtd">
<svg width="100%" height="100%" viewBox="0 0 468 69" version="1.1" xmlns="http://www.w3.org/2000/svg" xmlns:xlink="http://www.w3.org/1999/xlink" xml:space="preserve" xmlns:serif="http://www.serif.com/" style="fill-rule:evenodd;clip-rule:evenodd;stroke-linejoin:round;stroke-miterlimit:2;">
    <g transform="matrix(1,0,0,1,1.13687e-13,-0.5)">
        <path d="M114.385,35.812C114.385,38.32 113.638,40.429 112.143,42.139C110.649,43.849 108.014,44.704 104.239,44.704C101.782,44.704 99.401,44.311 97.095,43.526C96.259,43.222 95.702,42.969 95.423,42.766C95.145,42.563 95.005,42.31 95.005,42.006C95.005,41.702 95.119,41.259 95.347,40.676C95.55,40.245 95.721,39.948 95.86,39.783C96,39.618 96.171,39.536 96.373,39.536C96.5,39.536 96.633,39.555 96.772,39.593L97.19,39.707C97.33,39.745 97.463,39.789 97.589,39.84C97.995,39.992 98.299,40.093 98.501,40.144C99.388,40.499 100.205,40.758 100.952,40.923C101.7,41.088 102.656,41.17 103.821,41.17C106.228,41.17 107.957,40.746 109.008,39.897C110.06,39.048 110.585,37.813 110.585,36.192C110.585,35.077 110.402,34.203 110.034,33.57C109.667,32.937 108.97,32.424 107.944,32.031C106.918,31.638 105.417,31.341 103.441,31.138C100.528,30.859 98.394,30.042 97.038,28.687C95.683,27.332 95.005,25.653 95.005,23.652C95.005,22.259 95.24,21.1 95.708,20.175C96.177,19.25 96.829,18.446 97.665,17.762C98.476,17.129 99.439,16.66 100.553,16.356C101.668,16.052 103.036,15.9 104.657,15.9C106.177,15.9 107.444,15.982 108.457,16.147C109.471,16.312 110.56,16.571 111.725,16.926C112.232,17.103 112.568,17.274 112.732,17.439C112.897,17.604 112.979,17.838 112.979,18.142C112.979,18.395 112.84,18.877 112.561,19.586C112.409,19.915 112.251,20.162 112.086,20.327C111.922,20.492 111.725,20.574 111.497,20.574C111.219,20.574 110.839,20.485 110.357,20.308L109.635,20.08C108.774,19.852 107.944,19.687 107.146,19.586C106.348,19.485 105.405,19.434 104.315,19.434C103.327,19.434 102.498,19.516 101.826,19.681C101.155,19.846 100.591,20.105 100.135,20.46C99.705,20.815 99.369,21.252 99.128,21.771C98.888,22.29 98.767,22.829 98.767,23.386C98.767,24.273 98.938,24.988 99.28,25.533C99.622,26.078 100.262,26.521 101.199,26.863C102.137,27.205 103.492,27.465 105.265,27.642C108.559,27.971 110.902,28.864 112.295,30.321C113.689,31.778 114.385,33.608 114.385,35.812ZM135.931,43.108C135.931,43.437 135.906,43.678 135.855,43.83C135.805,43.982 135.703,44.083 135.551,44.134C135.399,44.185 135.159,44.21 134.829,44.21L134.145,44.21C133.689,44.21 133.373,44.147 133.195,44.02C133.018,43.893 132.866,43.602 132.739,43.146L132.435,42.272L132.359,42.272C131.321,43.083 130.231,43.684 129.091,44.077C127.951,44.47 126.824,44.666 125.709,44.666C123.607,44.666 121.979,44.134 120.826,43.07C119.674,42.006 119.097,40.41 119.097,38.282L119.097,24.298C119.097,23.969 119.123,23.728 119.173,23.576C119.224,23.424 119.325,23.323 119.477,23.272C119.629,23.221 119.87,23.196 120.199,23.196L121.643,23.196C121.973,23.196 122.207,23.221 122.346,23.272C122.486,23.323 122.587,23.424 122.65,23.576C122.714,23.728 122.745,23.969 122.745,24.298L122.745,37.484C122.745,38.827 123.043,39.808 123.638,40.429C124.234,41.05 125.228,41.36 126.621,41.36C127.66,41.36 128.635,41.17 129.547,40.79C130.459,40.41 131.219,39.941 131.827,39.384C132.03,39.207 132.157,39.048 132.207,38.909C132.258,38.77 132.283,38.535 132.283,38.206L132.283,24.298C132.283,23.969 132.315,23.728 132.378,23.576C132.442,23.424 132.543,23.323 132.682,23.272C132.822,23.221 133.056,23.196 133.385,23.196L134.829,23.196C135.159,23.196 135.393,23.221 135.532,23.272C135.672,23.323 135.773,23.424 135.836,23.576C135.9,23.728 135.931,23.956 135.931,24.26L135.931,43.108ZM152.081,44.59C149.523,44.59 147.483,43.64 145.963,41.74L145.887,41.74L145.887,50.442C145.887,50.771 145.862,51.006 145.811,51.145C145.761,51.284 145.659,51.379 145.507,51.43C145.355,51.481 145.102,51.506 144.747,51.506L143.379,51.506C142.898,51.506 142.588,51.436 142.448,51.297C142.309,51.158 142.239,50.847 142.239,50.366L142.239,27.034C142.239,26.401 142.265,25.926 142.315,25.609C142.366,25.292 142.461,25.058 142.6,24.906C142.74,24.754 142.974,24.615 143.303,24.488C144.519,23.905 145.71,23.468 146.875,23.177C148.041,22.886 149.447,22.74 151.093,22.74L151.473,22.74C154.615,22.74 156.895,23.589 158.313,25.286C159.732,26.983 160.441,29.428 160.441,32.62L160.441,34.824C160.441,41.335 157.718,44.59 152.271,44.59L152.081,44.59ZM150.979,25.97C150.194,25.97 149.396,26.052 148.585,26.217C147.775,26.382 147.053,26.629 146.419,26.958C146.166,27.11 146.014,27.23 145.963,27.319C145.913,27.408 145.887,27.604 145.887,27.908L145.887,36.306C145.887,37.142 146.122,37.953 146.59,38.738C147.059,39.523 147.711,40.157 148.547,40.638C149.383,41.119 150.321,41.36 151.359,41.36L151.473,41.36C152.841,41.36 153.899,41.107 154.646,40.6C155.394,40.093 155.919,39.34 156.223,38.339C156.527,37.338 156.679,36.015 156.679,34.368L156.679,32.886C156.679,30.581 156.274,28.852 155.463,27.699C154.653,26.546 153.272,25.97 151.321,25.97L150.979,25.97ZM167.243,34.938C167.243,37.193 167.744,38.833 168.744,39.859C169.745,40.885 171.284,41.398 173.361,41.398C174.907,41.398 176.414,41.081 177.883,40.448L178.377,40.201C178.555,40.112 178.745,40.024 178.947,39.935C179.15,39.846 179.315,39.802 179.441,39.802C179.897,39.802 180.265,40.081 180.543,40.638C180.822,41.119 180.961,41.499 180.961,41.778C180.961,42.057 180.866,42.291 180.676,42.481C180.486,42.671 180.176,42.88 179.745,43.108C178.859,43.589 177.871,43.963 176.781,44.229C175.692,44.495 174.539,44.628 173.323,44.628C170.055,44.628 167.623,43.805 166.027,42.158C164.431,40.511 163.633,38.105 163.633,34.938L163.633,32.506C163.633,29.289 164.406,26.857 165.951,25.21C167.497,23.563 169.688,22.74 172.525,22.74C175.439,22.74 177.573,23.525 178.928,25.096C180.284,26.667 180.961,29.099 180.961,32.392L180.961,33.456C180.961,33.76 180.936,33.988 180.885,34.14C180.835,34.292 180.746,34.393 180.619,34.444C180.493,34.495 180.277,34.52 179.973,34.52L167.243,34.52L167.243,34.938ZM172.411,25.932C171.297,25.932 170.353,26.147 169.58,26.578C168.808,27.009 168.225,27.61 167.832,28.383C167.44,29.156 167.243,30.036 167.243,31.024L167.243,31.328L177.313,31.328L177.313,30.758C177.313,29.035 176.921,27.8 176.135,27.053C175.35,26.306 174.109,25.932 172.411,25.932ZM185.711,24.298C185.711,23.969 185.743,23.728 185.806,23.576C185.87,23.424 185.977,23.323 186.129,23.272C186.281,23.221 186.522,23.196 186.851,23.196L187.497,23.196C187.827,23.196 188.074,23.221 188.238,23.272C188.403,23.323 188.536,23.424 188.637,23.576C188.739,23.728 188.84,23.956 188.941,24.26L189.245,25.172L189.321,25.172C189.853,24.387 190.512,23.785 191.297,23.367C192.083,22.949 193.071,22.74 194.261,22.74C195.351,22.74 196.389,22.905 197.377,23.234C197.631,23.31 197.827,23.424 197.966,23.576C198.106,23.728 198.175,23.943 198.175,24.222C198.175,24.551 198.087,24.995 197.909,25.552C197.757,26.084 197.612,26.432 197.472,26.597C197.333,26.762 197.111,26.844 196.807,26.844C196.579,26.844 196.288,26.768 195.933,26.616C195.097,26.337 194.312,26.198 193.577,26.198C192.691,26.198 191.931,26.407 191.297,26.825C190.664,27.243 190.183,27.807 189.853,28.516C189.524,29.225 189.359,30.036 189.359,30.948L189.359,43.108C189.359,43.437 189.334,43.678 189.283,43.83C189.233,43.982 189.131,44.083 188.979,44.134C188.827,44.185 188.587,44.21 188.257,44.21L186.851,44.21C186.37,44.21 186.06,44.14 185.92,44.001C185.781,43.862 185.711,43.564 185.711,43.108L185.711,24.298ZM208.359,22.74C209.423,22.74 210.481,22.936 211.532,23.329C212.584,23.722 213.502,24.336 214.287,25.172L214.363,25.172L214.363,17.268C214.363,16.939 214.389,16.704 214.439,16.565C214.49,16.426 214.591,16.331 214.743,16.28C214.895,16.229 215.149,16.204 215.503,16.204L216.909,16.204C217.239,16.204 217.479,16.229 217.631,16.28C217.783,16.331 217.885,16.432 217.935,16.584C217.986,16.736 218.011,16.977 218.011,17.306L218.011,40.334C218.011,40.993 217.986,41.474 217.935,41.778C217.885,42.082 217.796,42.316 217.669,42.481C217.543,42.646 217.315,42.791 216.985,42.918C215.769,43.475 214.579,43.9 213.413,44.191C212.248,44.482 210.842,44.628 209.195,44.628L208.815,44.628C205.725,44.628 203.451,43.786 201.994,42.101C200.538,40.416 199.809,37.94 199.809,34.672L199.809,32.544C199.809,30.391 200.158,28.579 200.854,27.11C201.551,25.641 202.526,24.545 203.78,23.823C205.034,23.101 206.485,22.74 208.131,22.74L208.359,22.74ZM209.271,41.398C210.842,41.398 212.286,41.107 213.603,40.524C214.11,40.271 214.363,39.941 214.363,39.536L214.363,30.226C214.363,29.517 214.161,28.833 213.755,28.174C213.35,27.515 212.755,26.983 211.969,26.578C211.184,26.173 210.272,25.97 209.233,25.97L209.119,25.97C207.118,25.97 205.693,26.54 204.844,27.68C203.996,28.82 203.571,30.581 203.571,32.962L203.571,34.482C203.571,36.762 203.977,38.485 204.787,39.65C205.598,40.815 206.979,41.398 208.929,41.398L209.271,41.398ZM226.371,34.938C226.371,37.193 226.872,38.833 227.872,39.859C228.873,40.885 230.412,41.398 232.489,41.398C234.035,41.398 235.542,41.081 237.011,40.448L237.505,40.201C237.683,40.112 237.873,40.024 238.075,39.935C238.278,39.846 238.443,39.802 238.569,39.802C239.025,39.802 239.393,40.081 239.671,40.638C239.95,41.119 240.089,41.499 240.089,41.778C240.089,42.057 239.994,42.291 239.804,42.481C239.614,42.671 239.304,42.88 238.873,43.108C237.987,43.589 236.999,43.963 235.909,44.229C234.82,44.495 233.667,44.628 232.451,44.628C229.183,44.628 226.751,43.805 225.155,42.158C223.559,40.511 222.761,38.105 222.761,34.938L222.761,32.506C222.761,29.289 223.534,26.857 225.079,25.21C226.625,23.563 228.816,22.74 231.653,22.74C234.567,22.74 236.701,23.525 238.056,25.096C239.412,26.667 240.089,29.099 240.089,32.392L240.089,33.456C240.089,33.76 240.064,33.988 240.013,34.14C239.963,34.292 239.874,34.393 239.747,34.444C239.621,34.495 239.405,34.52 239.101,34.52L226.371,34.52L226.371,34.938ZM231.539,25.932C230.425,25.932 229.481,26.147 228.708,26.578C227.936,27.009 227.353,27.61 226.96,28.383C226.568,29.156 226.371,30.036 226.371,31.024L226.371,31.328L236.441,31.328L236.441,30.758C236.441,29.035 236.049,27.8 235.263,27.053C234.478,26.306 233.237,25.932 231.539,25.932ZM245.029,43.678C244.421,43.475 243.978,43.285 243.699,43.108C243.421,42.931 243.281,42.69 243.281,42.386C243.281,42.209 243.294,42.05 243.319,41.911C243.345,41.772 243.395,41.613 243.471,41.436C243.573,41.132 243.712,40.841 243.889,40.562C244.067,40.283 244.257,40.144 244.459,40.144C244.637,40.144 244.839,40.195 245.067,40.296C247.094,40.955 249.146,41.284 251.223,41.284C254.289,41.284 255.821,40.245 255.821,38.168C255.821,37.433 255.701,36.857 255.46,36.439C255.22,36.021 254.726,35.673 253.978,35.394C253.231,35.115 252.085,34.913 250.539,34.786C248.031,34.583 246.195,33.975 245.029,32.962C243.864,31.949 243.281,30.568 243.281,28.82C243.281,27.756 243.484,26.825 243.889,26.027C244.295,25.229 244.877,24.577 245.637,24.07C246.929,23.183 248.791,22.74 251.223,22.74C252.287,22.74 253.218,22.784 254.016,22.873C254.814,22.962 255.593,23.082 256.353,23.234C256.86,23.335 257.303,23.494 257.683,23.709C258.063,23.924 258.253,24.171 258.253,24.45C258.253,24.729 258.127,25.147 257.873,25.704C257.696,26.084 257.538,26.369 257.398,26.559C257.259,26.749 257.075,26.844 256.847,26.844C256.721,26.844 256.518,26.8 256.239,26.711C255.961,26.622 255.695,26.54 255.441,26.464C253.972,26.109 252.515,25.932 251.071,25.932C249.602,25.932 248.551,26.16 247.917,26.616C247.613,26.819 247.373,27.091 247.195,27.433C247.018,27.775 246.929,28.174 246.929,28.63C246.929,29.365 247.094,29.916 247.423,30.283C247.753,30.65 248.221,30.904 248.829,31.043C249.437,31.182 250.413,31.328 251.755,31.48C254.415,31.784 256.36,32.449 257.588,33.475C258.817,34.501 259.431,35.964 259.431,37.864C259.431,40.043 258.722,41.689 257.303,42.804C255.885,43.919 253.82,44.476 251.109,44.476C250.02,44.476 248.931,44.4 247.841,44.248C246.752,44.096 245.815,43.906 245.029,43.678ZM280.293,42.386C280.547,42.665 280.756,42.912 280.92,43.127C281.085,43.342 281.167,43.513 281.167,43.64C281.167,43.868 281.066,44.02 280.863,44.096C280.661,44.172 280.357,44.21 279.951,44.21L278.621,44.21C278.216,44.21 277.893,44.185 277.652,44.134C277.412,44.083 277.222,44.001 277.082,43.887C276.943,43.773 276.759,43.589 276.531,43.336L269.235,35.546C268.83,35.141 268.532,34.881 268.342,34.767C268.152,34.653 267.867,34.583 267.487,34.558L267.221,34.558L267.221,43.108C267.221,43.437 267.196,43.672 267.145,43.811C267.095,43.95 266.993,44.052 266.841,44.115C266.689,44.178 266.449,44.21 266.119,44.21L264.713,44.21C264.232,44.21 263.922,44.14 263.782,44.001C263.643,43.862 263.573,43.564 263.573,43.108L263.573,17.306C263.573,16.85 263.643,16.552 263.782,16.413C263.922,16.274 264.219,16.204 264.675,16.204L266.119,16.204C266.575,16.204 266.873,16.274 267.012,16.413C267.152,16.552 267.221,16.85 267.221,17.306L267.221,31.366L267.335,31.366C267.639,31.341 267.88,31.277 268.057,31.176C268.235,31.075 268.526,30.847 268.931,30.492L275.619,23.956C275.949,23.677 276.227,23.481 276.455,23.367C276.683,23.253 277,23.196 277.405,23.196L278.773,23.196C279.229,23.196 279.571,23.234 279.799,23.31C280.027,23.386 280.141,23.551 280.141,23.804C280.141,24.159 279.736,24.678 278.925,25.362L271.287,32.734L280.293,42.386ZM297.127,44.21C296.697,44.21 296.374,44.172 296.158,44.096C295.943,44.02 295.797,43.874 295.721,43.659C295.645,43.444 295.607,43.121 295.607,42.69L295.607,17.952C295.607,17.521 295.652,17.198 295.74,16.983C295.829,16.768 295.975,16.622 296.177,16.546C296.38,16.47 296.684,16.432 297.089,16.432L300.015,16.432C300.421,16.432 300.737,16.495 300.965,16.622C301.193,16.749 301.434,17.002 301.687,17.382L311.643,31.556C312.099,32.113 312.505,32.683 312.859,33.266C313.214,33.849 313.48,34.355 313.657,34.786L313.733,34.786C313.683,33.823 313.657,32.493 313.657,30.796L313.657,17.952C313.657,17.521 313.695,17.198 313.771,16.983C313.847,16.768 313.987,16.622 314.189,16.546C314.392,16.47 314.709,16.432 315.139,16.432L317.761,16.432C318.192,16.432 318.515,16.47 318.73,16.546C318.946,16.622 319.091,16.761 319.167,16.964C319.243,17.167 319.281,17.496 319.281,17.952L319.281,42.69C319.281,43.121 319.243,43.437 319.167,43.64C319.091,43.843 318.952,43.988 318.749,44.077C318.547,44.166 318.217,44.21 317.761,44.21L315.063,44.21C314.709,44.21 314.424,44.172 314.208,44.096C313.993,44.02 313.79,43.887 313.6,43.697C313.41,43.507 313.163,43.209 312.859,42.804L302.637,28.516C302.409,28.187 302.15,27.769 301.858,27.262C301.567,26.755 301.32,26.274 301.117,25.818L301.041,25.818C301.067,26.071 301.105,26.496 301.155,27.091C301.206,27.686 301.231,28.377 301.231,29.162L301.231,42.69C301.231,43.121 301.193,43.437 301.117,43.64C301.041,43.843 300.902,43.988 300.699,44.077C300.497,44.166 300.18,44.21 299.749,44.21L297.127,44.21ZM329.845,35.546C329.845,37.015 330.244,38.143 331.042,38.928C331.84,39.713 333.151,40.106 334.975,40.106C336.521,40.106 338.003,39.815 339.421,39.232C339.548,39.181 339.706,39.105 339.896,39.004C340.086,38.903 340.295,38.814 340.523,38.738C340.751,38.662 340.941,38.624 341.093,38.624C341.372,38.624 341.594,38.706 341.758,38.871C341.923,39.036 342.145,39.384 342.423,39.916C342.474,40.017 342.569,40.201 342.708,40.467C342.848,40.733 342.955,40.955 343.031,41.132C343.107,41.309 343.145,41.474 343.145,41.626C343.145,41.955 343.025,42.221 342.784,42.424C342.544,42.627 342.081,42.88 341.397,43.184C340.46,43.64 339.402,43.995 338.224,44.248C337.046,44.501 335.824,44.628 334.557,44.628C331.897,44.628 329.801,44.197 328.268,43.336C326.736,42.475 325.665,41.278 325.057,39.745C324.449,38.212 324.145,36.344 324.145,34.14L324.145,32.658C324.145,29.39 324.988,26.92 326.672,25.248C328.357,23.576 330.745,22.74 333.835,22.74C335.989,22.74 337.749,23.107 339.117,23.842C340.485,24.577 341.499,25.704 342.157,27.224C342.816,28.744 343.145,30.72 343.145,33.152L343.145,33.722C343.145,34.153 343.114,34.469 343.05,34.672C342.987,34.875 342.854,35.02 342.651,35.109C342.449,35.198 342.132,35.242 341.701,35.242L329.845,35.242L329.845,35.546ZM333.759,26.958C332.974,26.958 332.284,27.123 331.688,27.452C331.093,27.781 330.637,28.244 330.32,28.839C330.004,29.434 329.845,30.112 329.845,30.872L329.845,31.062L337.483,31.062L337.483,30.758C337.483,29.491 337.167,28.541 336.533,27.908C335.9,27.275 334.975,26.958 333.759,26.958ZM351.657,44.21C351.049,44.21 350.619,44.096 350.365,43.868C350.112,43.64 349.922,43.235 349.795,42.652L346.109,25.78L345.919,24.83C345.818,24.501 345.767,24.222 345.767,23.994C345.767,23.766 345.862,23.576 346.052,23.424C346.242,23.272 346.527,23.196 346.907,23.196L349.833,23.196C350.213,23.196 350.492,23.266 350.669,23.405C350.847,23.544 350.961,23.804 351.011,24.184L352.949,34.444C353.152,35.787 353.279,36.838 353.329,37.598L353.443,37.598C353.494,36.838 353.709,35.774 354.089,34.406L356.863,24.336C356.99,23.88 357.161,23.576 357.376,23.424C357.592,23.272 357.927,23.196 358.383,23.196L360.777,23.196C361.157,23.196 361.449,23.228 361.651,23.291C361.854,23.354 362.006,23.462 362.107,23.614C362.209,23.766 362.31,23.994 362.411,24.298L365.185,34.406C365.312,34.862 365.439,35.407 365.565,36.04C365.692,36.673 365.768,37.193 365.793,37.598L365.907,37.598C366.009,36.382 366.148,35.331 366.325,34.444L368.111,24.374C368.162,23.943 368.289,23.639 368.491,23.462C368.694,23.285 369.023,23.196 369.479,23.196L372.519,23.196C373.127,23.196 373.431,23.449 373.431,23.956C373.431,24.083 373.4,24.292 373.336,24.583C373.273,24.874 373.229,25.109 373.203,25.286L369.403,42.766C369.302,43.298 369.125,43.672 368.871,43.887C368.618,44.102 368.263,44.21 367.807,44.21L365.071,44.21C364.666,44.21 364.356,44.172 364.14,44.096C363.925,44.02 363.748,43.887 363.608,43.697C363.469,43.507 363.336,43.209 363.209,42.804L360.169,31.67C360.068,31.29 359.967,30.84 359.865,30.321C359.764,29.802 359.688,29.441 359.637,29.238L359.523,29.238C359.473,29.593 359.384,30.036 359.257,30.568C359.131,31.1 359.042,31.467 358.991,31.67L356.027,42.766C355.926,43.146 355.818,43.431 355.704,43.621C355.59,43.811 355.419,43.957 355.191,44.058C354.963,44.159 354.634,44.21 354.203,44.21L351.657,44.21ZM378.029,43.526C377.32,43.323 376.794,43.108 376.452,42.88C376.11,42.652 375.939,42.361 375.939,42.006C375.939,41.753 375.977,41.506 376.053,41.265C376.129,41.024 376.231,40.765 376.357,40.486C376.585,39.903 376.788,39.485 376.965,39.232C377.143,38.979 377.371,38.852 377.649,38.852C377.928,38.852 378.245,38.941 378.599,39.118C379.587,39.473 380.613,39.751 381.677,39.954C382.741,40.157 383.729,40.258 384.641,40.258C385.756,40.258 386.617,40.081 387.225,39.726C387.833,39.371 388.137,38.827 388.137,38.092C388.137,37.585 388.036,37.18 387.833,36.876C387.631,36.572 387.219,36.319 386.598,36.116C385.978,35.913 385.034,35.761 383.767,35.66C381.107,35.432 379.176,34.805 377.972,33.779C376.769,32.753 376.167,31.328 376.167,29.504C376.167,28.263 376.37,27.224 376.775,26.388C377.181,25.552 377.814,24.83 378.675,24.222C379.359,23.715 380.208,23.342 381.221,23.101C382.235,22.86 383.451,22.74 384.869,22.74C386.845,22.74 388.631,22.955 390.227,23.386C390.861,23.563 391.361,23.76 391.728,23.975C392.096,24.19 392.279,24.45 392.279,24.754C392.279,24.957 392.235,25.204 392.146,25.495C392.058,25.786 391.937,26.109 391.785,26.464C391.532,27.072 391.329,27.49 391.177,27.718C391.025,27.946 390.823,28.06 390.569,28.06C390.392,28.06 390.221,28.041 390.056,28.003C389.892,27.965 389.714,27.914 389.524,27.851L388.897,27.642C388.467,27.49 387.865,27.357 387.092,27.243C386.32,27.129 385.655,27.072 385.097,27.072C383.881,27.072 383.02,27.211 382.513,27.49C381.855,27.819 381.525,28.339 381.525,29.048C381.525,29.555 381.639,29.935 381.867,30.188C382.095,30.441 382.488,30.631 383.045,30.758C383.603,30.885 384.451,31.011 385.591,31.138C388.403,31.417 390.43,32.088 391.671,33.152C392.913,34.216 393.533,35.723 393.533,37.674C393.533,39.878 392.742,41.563 391.158,42.728C389.575,43.893 387.238,44.476 384.147,44.476C383.109,44.476 382.045,44.387 380.955,44.21C379.866,44.033 378.891,43.805 378.029,43.526ZM411.887,44.21C411.457,44.21 411.14,44.172 410.937,44.096C410.735,44.02 410.595,43.874 410.519,43.659C410.443,43.444 410.405,43.121 410.405,42.69L410.405,31.252C410.405,30.036 410.177,29.061 409.721,28.326C409.265,27.591 408.429,27.224 407.213,27.224C406.403,27.224 405.662,27.37 404.99,27.661C404.319,27.952 403.781,28.301 403.375,28.706C403.249,28.807 403.173,28.915 403.147,29.029C403.122,29.143 403.109,29.365 403.109,29.694L403.109,42.804C403.109,43.184 403.071,43.469 402.995,43.659C402.919,43.849 402.786,43.988 402.596,44.077C402.406,44.166 402.109,44.21 401.703,44.21L398.929,44.21C398.372,44.21 397.979,44.128 397.751,43.963C397.523,43.798 397.409,43.463 397.409,42.956L397.409,17.724C397.409,17.293 397.447,16.977 397.523,16.774C397.599,16.571 397.739,16.426 397.941,16.337C398.144,16.248 398.473,16.204 398.929,16.204L401.589,16.204C402.045,16.204 402.375,16.248 402.577,16.337C402.78,16.426 402.913,16.571 402.976,16.774C403.04,16.977 403.071,17.281 403.071,17.686L403.071,25.4L403.185,25.4C403.996,24.488 404.921,23.817 405.959,23.386C406.998,22.955 408.176,22.74 409.493,22.74C410.76,22.74 411.887,22.974 412.875,23.443C413.863,23.912 414.642,24.627 415.212,25.59C415.782,26.553 416.067,27.743 416.067,29.162L416.067,42.69C416.067,43.121 416.029,43.444 415.953,43.659C415.877,43.874 415.738,44.02 415.535,44.096C415.333,44.172 415.003,44.21 414.547,44.21L411.887,44.21ZM440.007,42.69C440.007,43.146 439.969,43.475 439.893,43.678C439.817,43.881 439.678,44.02 439.475,44.096C439.273,44.172 438.956,44.21 438.525,44.21L436.397,44.21C435.865,44.21 435.498,44.128 435.295,43.963C435.093,43.798 434.928,43.475 434.801,42.994L434.573,42.044L434.459,42.044C433.674,42.905 432.743,43.558 431.666,44.001C430.59,44.444 429.431,44.666 428.189,44.666C426.036,44.666 424.364,44.096 423.173,42.956C421.983,41.816 421.387,40.195 421.387,38.092L421.387,24.716C421.387,24.26 421.425,23.931 421.501,23.728C421.577,23.525 421.717,23.386 421.919,23.31C422.122,23.234 422.451,23.196 422.907,23.196L425.567,23.196C425.998,23.196 426.315,23.234 426.517,23.31C426.72,23.386 426.859,23.525 426.935,23.728C427.011,23.931 427.049,24.26 427.049,24.716L427.049,36.724C427.049,37.484 427.125,38.111 427.277,38.605C427.429,39.099 427.714,39.485 428.132,39.764C428.55,40.043 429.152,40.182 429.937,40.182C430.773,40.182 431.559,40.017 432.293,39.688C433.028,39.359 433.598,38.979 434.003,38.548C434.155,38.396 434.25,38.238 434.288,38.073C434.326,37.908 434.345,37.687 434.345,37.408L434.345,24.716C434.345,24.26 434.383,23.931 434.459,23.728C434.535,23.525 434.681,23.386 434.896,23.31C435.112,23.234 435.435,23.196 435.865,23.196L438.525,23.196C438.956,23.196 439.273,23.234 439.475,23.31C439.678,23.386 439.817,23.525 439.893,23.728C439.969,23.931 440.007,24.247 440.007,24.678L440.007,42.69ZM457.069,22.778C459.704,22.778 461.781,23.557 463.301,25.115C464.821,26.673 465.581,29.175 465.581,32.62L465.581,33.836C465.581,37.332 464.581,40.005 462.579,41.854C460.578,43.703 457.69,44.628 453.915,44.628C451.433,44.628 449.001,44.299 446.619,43.64C446.341,43.564 446.144,43.488 446.03,43.412C445.916,43.336 445.84,43.228 445.802,43.089C445.764,42.95 445.745,42.715 445.745,42.386L445.745,17.724C445.745,17.268 445.783,16.939 445.859,16.736C445.935,16.533 446.081,16.394 446.296,16.318C446.512,16.242 446.847,16.204 447.303,16.204L449.925,16.204C450.356,16.204 450.679,16.242 450.894,16.318C451.11,16.394 451.255,16.533 451.331,16.736C451.407,16.939 451.445,17.243 451.445,17.648L451.445,24.906L451.521,24.906C452.155,24.222 452.921,23.696 453.82,23.329C454.72,22.962 455.727,22.778 456.841,22.778L457.069,22.778ZM453.915,40.144C455.258,40.144 456.354,39.935 457.202,39.517C458.051,39.099 458.691,38.409 459.121,37.446C459.552,36.483 459.767,35.191 459.767,33.57L459.767,32.962C459.767,31.037 459.451,29.605 458.817,28.668C458.184,27.731 457.171,27.262 455.777,27.262L455.511,27.262C454.675,27.262 453.953,27.471 453.345,27.889C452.737,28.307 452.269,28.845 451.939,29.504C451.61,30.163 451.445,30.859 451.445,31.594L451.445,39.84C452.155,40.043 452.978,40.144 453.915,40.144Z" style="fill:white;"/>
    </g>
    <g transform="matrix(1,0,0,1,-110,-876.328)">
        <path d="M143.302,904.465C143.044,904.368 142.913,904.081 143.009,903.823C143.233,903.222 143.593,902.253 143.593,902.253L112.426,890.499C111.538,890.164 110.956,889.31 110.969,888.362C110.983,887.414 111.589,886.575 112.485,886.266L137.82,877.511C138.558,877.256 139.363,877.268 140.094,877.544L171.199,889.314C171.781,889.534 172.243,889.989 172.474,890.567C172.704,891.145 172.681,891.793 172.41,892.353C172.41,892.353 171.748,893.722 171.407,894.429C171.294,894.662 171.022,894.77 170.779,894.679C170.275,894.488 169.439,894.172 168.901,893.968C168.77,893.919 168.666,893.816 168.614,893.686C168.562,893.555 168.567,893.409 168.628,893.283C168.909,892.703 169.337,891.817 169.337,891.817L139.032,880.35C138.957,880.322 138.875,880.321 138.8,880.347L115.425,888.424L145.445,899.745C146.552,900.162 147.113,901.395 146.701,902.504C146.701,902.504 146.119,904.069 145.818,904.878C145.772,905.002 145.678,905.103 145.557,905.158C145.435,905.214 145.297,905.218 145.173,905.171C144.653,904.975 143.82,904.661 143.302,904.465ZM143.086,910.797C143.344,910.894 143.475,911.181 143.379,911.439C142.22,914.556 135.646,932.238 135.646,932.238L154.902,921.234C155.091,921.126 155.243,920.963 155.338,920.767C155.338,920.767 164.127,902.592 165.569,899.61C165.682,899.376 165.954,899.268 166.196,899.36C166.7,899.55 167.536,899.867 168.074,900.07C168.205,900.12 168.309,900.222 168.361,900.353C168.413,900.483 168.408,900.629 168.347,900.756C166.783,903.99 158.039,922.073 158.039,922.073C157.68,922.815 157.105,923.43 156.39,923.839L135.237,935.926C134.43,936.387 133.421,936.294 132.713,935.693C132.005,935.091 131.749,934.111 132.072,933.24C132.072,933.24 139.342,913.687 140.57,910.385C140.616,910.26 140.71,910.159 140.831,910.104C140.953,910.049 141.091,910.044 141.215,910.091C141.735,910.287 142.568,910.601 143.086,910.797Z" style="fill:rgb(30,176,108);"/>
        <path d="M141.714,927.043C141.622,927.095 141.508,927.084 141.428,927.016C141.348,926.949 141.319,926.838 141.355,926.739C142.481,923.68 147.238,910.759 147.238,910.759L116.065,899.003C115.178,898.669 114.596,897.814 114.609,896.866C114.622,895.918 115.228,895.08 116.124,894.77C116.124,894.77 117.033,894.457 117.545,894.279C117.766,894.203 118.006,894.207 118.225,894.289C118.954,894.564 120.684,895.216 121.631,895.574C121.73,895.611 121.795,895.706 121.793,895.811C121.792,895.916 121.724,896.009 121.625,896.044C120.685,896.369 119.065,896.928 119.065,896.928L149.087,908.25C150.191,908.667 150.752,909.895 150.345,911.003C150.345,911.003 146.084,922.576 145.292,924.728C145.211,924.948 145.054,925.134 144.85,925.25C144.175,925.636 142.585,926.545 141.714,927.043ZM141.349,934.161C141.44,934.109 141.555,934.12 141.635,934.188C141.715,934.255 141.744,934.366 141.708,934.465C141.081,936.167 139.429,940.654 139.429,940.654L158.541,929.739C158.731,929.631 158.883,929.468 158.978,929.272L172.977,900.322L142.672,888.855C142.597,888.827 142.515,888.825 142.439,888.851C142.439,888.851 133.38,891.982 131.494,892.634C131.273,892.71 131.033,892.707 130.814,892.624C130.085,892.349 128.355,891.697 127.408,891.339C127.309,891.302 127.244,891.207 127.246,891.102C127.247,890.997 127.315,890.904 127.414,890.869C130.265,889.884 141.459,886.016 141.459,886.016C142.198,885.761 143.003,885.772 143.733,886.049L174.838,897.818C175.42,898.039 175.883,898.493 176.114,899.071C176.344,899.649 176.321,900.298 176.05,900.858L161.678,930.578C161.32,931.319 160.745,931.935 160.029,932.344L139.03,944.337C138.225,944.797 137.217,944.705 136.509,944.105C135.801,943.506 135.543,942.528 135.863,941.658C135.863,941.658 137.327,937.681 137.771,936.476C137.852,936.255 138.009,936.07 138.213,935.954C138.888,935.568 140.478,934.659 141.349,934.161Z" style="fill:rgb(0,127,173);"/>
    </g>
</svg>
