<?xml version="1.0" encoding="UTF-8" standalone="no"?>
<!DOCTYPE svg PUBLIC "-//W3C//DTD SVG 1.1//EN" "http://www.w3.org/Graphics/SVG/1.1/DTD/svg11.dtd">
<svg width="100%" height="100%" viewBox="0 0 12 12" version="1.1" xmlns="http://www.w3.org/2000/svg" xmlns:xlink="http://www.w3.org/1999/xlink" xml:space="preserve" xmlns:serif="http://www.serif.com/" style="fill-rule:evenodd;clip-rule:evenodd;stroke-linejoin:round;stroke-miterlimit:2;">
    <g transform="matrix(1.00847,0,0,1,-0.101596,0)">
        <rect x="0.101" y="0" width="11.899" height="12" style="fill:white;fill-opacity:0;"/>
    </g>
    <path d="M3,8.646L3,8C3,7.801 3.058,7.615 3.158,7.46C3.457,6.995 4.312,6.665 4.857,6.576C5.137,6.53 5.508,6.5 6,6.5C6.492,6.5 6.863,6.53 7.143,6.576C7.688,6.665 8.543,6.995 8.842,7.46C8.942,7.615 9,7.801 9,8L9,8.646C8.267,9.476 7.195,10 6,10C4.805,10 3.733,9.476 3,8.646ZM6,2C7.104,2 8,2.896 8,4C8,5.104 7.104,6 6,6C4.896,6 4,5.104 4,4C4,2.896 4.896,2 6,2Z" style="fill:white;"/>
</svg>
