<svg width="12" height="12" viewBox="0 0 12 12" fill="none" xmlns="http://www.w3.org/2000/svg">
<path fill-rule="evenodd" clip-rule="evenodd" d="M5 4.5H3C3 3.82031 3.43443 3.05286 3.98579 2.63934C4.53683 2.22605 5.25227 2 6 2C6.74773 2 7.46317 2.22605 8.01421 2.63934C8.56557 3.05286 9 3.58594 9 4.5C9 5.53125 7.75781 6.05469 7.42188 6.35156C7.19724 6.55008 7 6.91406 7 7.25V7.53125H5V7.25C5 6.07812 5.89844 5.39062 6.57031 5.01562C6.8108 4.8814 7.03906 4.64127 7.03906 4.45312C7.03906 4.07031 6.74219 3.76562 6.10938 3.76562C5.61719 3.76562 5 4.00781 5 4.5ZM5 9.98438V8.54688H7V9.98438H5Z" fill="white"/>
</svg>
