<svg width="415" height="263" viewBox="0 0 415 263" fill="none" xmlns="http://www.w3.org/2000/svg">
<g opacity="0.8">
<path d="M70.9846 111.416C94.0968 198.584 51.7135 230.631 85.4658 256.645C119.522 283.06 160.26 216.395 217.449 216.451C255.242 216.458 290.674 244.571 331.464 247.627C364.321 250.09 411.976 234.206 414.703 185.237C419.935 91.3119 310.745 103.069 246.049 83.1068C173.246 60.6158 168.041 -13.654 101.207 8.39877C76.0795 16.8104 54.3157 48.784 70.9846 111.416Z" fill="black" fill-opacity="0.04"/>
<path d="M377.98 111.389C319.229 46.3582 351.393 10.6623 309.379 1.67611C266.741 -7.44526 248.272 64.4216 195.978 77.8428C159.414 87.2271 118.478 59.5226 65.8499 74.5051C16.9113 88.3929 -11.3182 138.275 5.12324 181.708C36.5976 264.804 138.373 206.374 206.426 198.203C282.905 189.049 340.279 249.86 392.146 204.977C411.794 188.131 420.258 158.076 377.98 111.389Z" fill="black" fill-opacity="0.04"/>
<g opacity="0.4">
<path d="M38 80.1084H52" stroke="#262424" stroke-width="2" stroke-linecap="round"/>
<path d="M60 58.1084V72.1084" stroke="#262424" stroke-width="2" stroke-linecap="round"/>
<path d="M45 65.1084L54.8995 75.0079" stroke="#262424" stroke-width="2" stroke-linecap="round"/>
</g>
<rect opacity="0.4" x="62" y="136.108" width="291" height="42" rx="6" stroke="#262424" stroke-width="2" stroke-linecap="round" stroke-dasharray="6 4"/>
<rect opacity="0.4" x="62" y="82.1084" width="291" height="42" rx="6" stroke="#262424" stroke-width="2" stroke-linecap="round" stroke-dasharray="6 4"/>
<circle cx="244.353" cy="149.03" r="34" transform="rotate(-40 244.353 149.03)" fill="white" fill-opacity="0.6"/>
<rect x="266.969" y="182.204" width="8" height="12" transform="rotate(-40 266.969 182.204)" fill="#666666"/>
<path d="M271.65 194.007C270.94 193.161 271.05 191.899 271.896 191.189L281.089 183.476C281.935 182.766 283.197 182.876 283.907 183.722L310.904 215.896C312.324 217.588 312.103 220.111 310.411 221.531L304.282 226.674C302.59 228.094 300.067 227.873 298.647 226.181L271.65 194.007Z" fill="#4F4F4F"/>
<rect x="282.005" y="189.234" width="2" height="34" rx="1" transform="rotate(-40 282.005 189.234)" fill="white"/>
<path fill-rule="evenodd" clip-rule="evenodd" d="M270.065 179.672C286.988 165.472 289.195 140.241 274.995 123.318C260.795 106.395 235.565 104.188 218.642 118.388C201.719 132.588 199.511 157.818 213.712 174.741C227.912 191.664 253.142 193.872 270.065 179.672ZM264.28 172.777C277.395 161.772 279.106 142.219 268.101 129.103C257.096 115.988 237.542 114.277 224.427 125.283C211.312 136.288 209.601 155.841 220.606 168.956C231.611 182.072 251.164 183.782 264.28 172.777Z" fill="#D9D9D9"/>
<path d="M274.229 123.961C288.074 140.461 285.922 165.061 269.422 178.906L270.708 180.438C288.054 165.883 290.316 140.022 275.761 122.676L274.229 123.961ZM219.285 119.154C235.784 105.309 260.384 107.461 274.229 123.961L275.761 122.676C261.206 105.33 235.345 103.067 217.999 117.622L219.285 119.154ZM214.478 174.099C200.632 157.599 202.785 132.999 219.285 119.154L217.999 117.622C200.653 132.177 198.39 158.038 212.945 175.384L214.478 174.099ZM269.422 178.906C252.922 192.751 228.323 190.599 214.478 174.099L212.945 175.384C227.501 192.73 253.362 194.993 270.708 180.438L269.422 178.906ZM267.335 129.746C277.985 142.438 276.329 161.361 263.637 172.011L264.922 173.543C278.461 162.183 280.227 141.999 268.867 128.461L267.335 129.746ZM225.07 126.049C237.762 115.398 256.685 117.054 267.335 129.746L268.867 128.461C257.507 114.922 237.322 113.156 223.784 124.516L225.07 126.049ZM221.372 168.314C210.722 155.621 212.377 136.699 225.07 126.049L223.784 124.516C210.246 135.877 208.48 156.061 219.84 169.599L221.372 168.314ZM263.637 172.011C250.945 182.661 232.022 181.006 221.372 168.314L219.84 169.599C231.2 183.137 251.384 184.903 264.922 173.543L263.637 172.011Z" fill="#4F4F4F"/>
<path fill-rule="evenodd" clip-rule="evenodd" d="M220.052 123.842C220.45 123.459 220.461 122.826 220.078 122.428C219.694 122.031 219.061 122.019 218.664 122.403C215.918 125.052 213.598 128.11 211.787 131.469C211.525 131.955 211.706 132.561 212.192 132.823C212.679 133.085 213.285 132.904 213.547 132.418C215.26 129.241 217.455 126.348 220.052 123.842ZM223.696 118.334C223.238 118.642 223.116 119.263 223.425 119.721C223.733 120.18 224.354 120.301 224.813 119.993C229.614 116.762 235.141 114.772 240.9 114.201C246.659 113.63 252.469 114.496 257.811 116.721C263.154 118.946 267.861 122.462 271.511 126.952C275.162 131.442 277.642 136.768 278.729 142.452C278.833 142.994 279.357 143.35 279.9 143.246C280.442 143.142 280.798 142.618 280.694 142.076C279.544 136.067 276.922 130.437 273.063 125.69C269.204 120.943 264.228 117.227 258.581 114.875C252.933 112.522 246.791 111.607 240.703 112.211C234.615 112.814 228.771 114.918 223.696 118.334Z" fill="white"/>
</g>
</svg>
