<svg width="256" height="129" viewBox="0 0 256 129" fill="none" xmlns="http://www.w3.org/2000/svg">
<g opacity="0.5">
<rect opacity="0.3" x="2" y="31.1768" width="252" height="32" rx="6" stroke="#262424" stroke-width="2" stroke-linecap="round" stroke-dasharray="6 4"/>
<rect opacity="0.2" x="2" y="73.1768" width="252" height="32" rx="6" stroke="#262424" stroke-width="2" stroke-linecap="round" stroke-dasharray="6 4"/>
<circle cx="119.961" cy="46.1982" r="27.73" transform="rotate(-40 119.961 46.1982)" fill="white" fill-opacity="0.9"/>
<rect x="138.406" y="73.2539" width="6.52471" height="9.78706" transform="rotate(-40 138.406 73.2539)" fill="#666666"/>
<path d="M142.461 83.1629C141.751 82.3168 141.861 81.0553 142.707 80.3453L149.64 74.5284C150.486 73.8184 151.747 73.9288 152.457 74.7749L173.765 100.168C175.185 101.86 174.964 104.383 173.272 105.803L169.403 109.049C167.711 110.469 165.188 110.248 163.768 108.556L142.461 83.1629Z" fill="#4F4F4F"/>
<rect x="150.669" y="78.9883" width="1.63118" height="27.73" rx="0.815588" transform="rotate(-40 150.669 78.9883)" fill="white"/>
<path fill-rule="evenodd" clip-rule="evenodd" d="M140.931 71.1889C154.733 59.6075 156.534 39.03 144.952 25.2278C133.371 11.4256 112.793 9.62534 98.9911 21.2068C85.1889 32.7882 83.3886 53.3656 94.97 67.1678C106.551 80.97 127.129 82.7703 140.931 71.1889ZM136.213 65.5659C146.91 56.5903 148.305 40.6428 139.329 29.9461C130.354 19.2494 114.406 17.8542 103.709 26.8297C93.0126 35.8053 91.6174 51.7529 100.593 62.4496C109.569 73.1463 125.516 74.5415 136.213 65.5659Z" fill="#D9D9D9"/>
<path d="M144.186 25.8706C155.413 39.2497 153.667 59.1965 140.288 70.4229L141.574 71.955C155.799 60.0185 157.655 38.8103 145.718 24.585L144.186 25.8706ZM99.6339 21.9728C113.013 10.7464 132.96 12.4915 144.186 25.8706L145.718 24.585C133.782 10.3598 112.574 8.50429 98.3483 20.4407L99.6339 21.9728ZM95.736 66.525C84.5096 53.1459 86.2547 33.1992 99.6339 21.9728L98.3483 20.4407C84.123 32.3771 82.2675 53.5854 94.204 67.8106L95.736 66.525ZM140.288 70.4229C126.909 81.6493 106.962 79.9042 95.736 66.525L94.204 67.8106C106.14 82.0359 127.349 83.8914 141.574 71.955L140.288 70.4229ZM138.563 30.5889C147.184 40.8625 145.844 56.1793 135.57 64.7999L136.856 66.332C147.975 57.0014 149.426 40.4231 140.095 29.3033L138.563 30.5889ZM104.352 27.5958C114.626 18.9752 129.943 20.3152 138.563 30.5889L140.095 29.3033C130.765 18.1835 114.186 16.7331 103.067 26.0637L104.352 27.5958ZM101.359 61.8068C92.7384 51.5332 94.0785 36.2164 104.352 27.5958L103.067 26.0637C91.9468 35.3943 90.4964 51.9726 99.827 63.0924L101.359 61.8068ZM135.57 64.7999C125.296 73.4205 109.98 72.0804 101.359 61.8068L99.827 63.0924C109.158 74.2121 125.736 75.6626 136.856 66.332L135.57 64.7999Z" fill="#4F4F4F"/>
<path fill-rule="evenodd" clip-rule="evenodd" d="M100.27 25.7878C100.667 25.4043 100.678 24.7712 100.295 24.3738C99.9115 23.9763 99.2785 23.965 98.881 24.3484C96.6277 26.5223 94.7242 29.0317 93.2381 31.7875C92.9759 32.2737 93.1575 32.8802 93.6436 33.1424C94.1297 33.4045 94.7363 33.223 94.9984 32.7368C96.3867 30.1625 98.1648 27.8185 100.27 25.7878ZM103.01 21.0093C102.552 21.3177 102.431 21.9391 102.739 22.3973C103.047 22.8555 103.669 22.9769 104.127 22.6686C108.017 20.0505 112.496 18.438 117.163 17.9753C121.829 17.5127 126.538 18.2143 130.867 20.0175C135.195 21.8207 139.01 24.6691 141.968 28.3078C144.926 31.9464 146.935 36.2618 147.817 40.8676C147.921 41.4101 148.444 41.7657 148.987 41.6619C149.529 41.5581 149.885 41.0342 149.781 40.4917C148.838 35.5611 146.686 30.9414 143.52 27.0462C140.353 23.1509 136.27 20.1016 131.636 18.1713C127.002 16.2409 121.961 15.4898 116.966 15.9851C111.97 16.4804 107.175 18.2066 103.01 21.0093Z" fill="white"/>
<path opacity="0.7" d="M120.899 31.249C123.587 31.249 125.603 31.795 126.947 32.887C128.319 33.979 129.005 35.617 129.005 37.801C129.005 39.985 128.781 41.581 128.333 42.589C127.913 43.569 127.003 44.591 125.603 45.655C124.203 46.691 123.321 47.489 122.957 48.049C122.593 48.609 122.411 49.225 122.411 49.897V51.199H117.917C117.049 50.247 116.615 48.973 116.615 47.377C116.615 46.369 117.497 45.151 119.261 43.723C121.053 42.295 122.145 41.315 122.537 40.783C122.957 40.223 123.167 39.551 123.167 38.767C123.167 37.115 121.977 36.289 119.597 36.289C117.917 36.289 116.195 36.457 114.431 36.793L113.549 36.961L113.255 32.719C115.663 31.739 118.211 31.249 120.899 31.249ZM116.993 60.313V53.551H123.041V60.313H116.993Z" fill="#242424"/>
</g>
</svg>
