<?xml version="1.0" encoding="UTF-8" standalone="no"?>
<!DOCTYPE svg PUBLIC "-//W3C//DTD SVG 1.1//EN" "http://www.w3.org/Graphics/SVG/1.1/DTD/svg11.dtd">
<svg width="100%" height="100%" viewBox="0 0 2588 159" version="1.1" xmlns="http://www.w3.org/2000/svg" xmlns:xlink="http://www.w3.org/1999/xlink" xml:space="preserve" xmlns:serif="http://www.serif.com/" style="fill-rule:evenodd;clip-rule:evenodd;stroke-linejoin:round;stroke-miterlimit:2;">
    <g transform="matrix(4.16667,0,0,4.16667,0,0)">
        <path d="M0,0.875L7.355,0.875L7.355,31.198L25.219,31.198L25.219,37.5L0,37.5L0,0.875Z" style="fill:white;fill-rule:nonzero;"/>
        <path d="M46.334,10.531C46.334,10.531 40.979,24.941 40.93,24.941L51.688,24.941L46.334,10.531ZM36.276,37.5L28.92,37.5L43.131,0.621L49.886,0.621L64.096,37.5L56.34,37.5L53.889,30.897L38.729,30.897L36.276,37.5Z" style="fill:white;fill-rule:nonzero;"/>
        <path d="M96.843,20.39C100.146,20.39 102.999,19.887 102.999,13.629C102.999,7.378 100.045,6.927 96.744,6.927L89.038,6.927L89.038,20.39L96.843,20.39ZM81.731,0.875L96.843,0.875C105.901,0.875 110.354,3.277 110.354,13.533C110.354,23.843 105.75,26.345 96.744,26.345L89.038,26.345L89.038,37.5L81.731,37.5L81.731,0.875Z" style="fill:white;fill-rule:nonzero;"/>
        <path d="M130.718,19.887C134.672,19.887 136.874,18.984 136.874,13.385C136.874,7.728 134.421,6.927 130.618,6.927L123.413,6.927L123.413,19.887L130.718,19.887ZM146.631,37.5L138.224,37.5L130.368,25.844L123.413,25.844L123.413,37.5L116.108,37.5L116.108,0.875L130.718,0.875C139.775,0.875 144.229,3.027 144.229,13.282C144.229,20.438 141.977,23.19 137.725,24.241L146.631,37.5Z" style="fill:white;fill-rule:nonzero;"/>
        <path d="M152.034,0.875L176.401,0.875L176.401,7.326L159.389,7.326L159.389,15.488L172.8,15.488L172.8,21.941L159.389,21.941L159.389,31.198L176.401,31.198L176.401,37.5L152.034,37.5L152.034,0.875Z" style="fill:white;fill-rule:nonzero;"/>
        <path d="M182.456,36.45L183.607,30.297C185.108,30.647 191.762,31.645 195.265,31.645C200.469,31.645 202.07,30.944 202.07,27.143C202.07,23.742 201.02,23.388 195.015,22.19C185.007,20.187 182.557,18.638 182.557,10.68C182.557,3.027 187.459,0.424 195.814,0.424C200.269,0.424 206.424,1.176 208.025,1.677L206.873,7.881C204.572,7.526 199.968,6.828 195.766,6.828C191.512,6.828 190.011,7.781 190.011,10.782C190.011,14.235 191.162,14.634 196.916,15.784C206.524,17.687 209.626,18.888 209.626,27.194C209.626,35.401 205.022,37.903 195.215,37.903C189.661,37.903 184.157,36.952 182.456,36.45Z" style="fill:white;fill-rule:nonzero;"/>
        <path d="M213.728,36.45L214.88,30.297C216.381,30.647 223.034,31.645 226.538,31.645C231.742,31.645 233.343,30.944 233.343,27.143C233.343,23.742 232.293,23.388 226.287,22.19C216.281,20.187 213.829,18.638 213.829,10.68C213.829,3.027 218.731,0.424 227.089,0.424C231.542,0.424 237.696,1.176 239.297,1.677L238.146,7.881C235.846,7.526 231.241,6.828 227.039,6.828C222.786,6.828 221.284,7.781 221.284,10.782C221.284,14.235 222.436,14.634 228.19,15.784C237.797,17.687 240.898,18.888 240.898,27.194C240.898,35.401 236.295,37.903 226.488,37.903C220.935,37.903 215.429,36.952 213.728,36.45Z" style="fill:white;fill-rule:nonzero;"/>
        <path d="M247.153,0.875L271.521,0.875L271.521,7.326L254.509,7.326L254.509,15.488L267.917,15.488L267.917,21.941L254.509,21.941L254.509,31.198L271.521,31.198L271.521,37.5L247.153,37.5L247.153,0.875Z" style="fill:white;fill-rule:nonzero;"/>
        <path d="M290.784,19.184C290.784,3.324 297.189,0.328 307.197,0.328C313.202,0.328 315.953,1.072 317.654,1.423L316.403,7.681C313.701,7.229 310.999,6.778 307.096,6.778C300.691,6.778 298.49,9.381 298.49,17.739L298.49,20.438C298.49,28.593 300.743,31.698 307.197,31.698C312,31.698 315.352,30.844 316.453,30.647L317.654,36.799C315.703,37.352 312.95,38 307.096,38C296.988,38 290.784,35.049 290.784,19.184Z" style="fill:white;fill-rule:nonzero;"/>
        <path d="M338.561,10.531C338.561,10.531 333.208,24.941 333.159,24.941L343.917,24.941L338.561,10.531ZM328.504,37.5L321.149,37.5L335.36,0.621L342.114,0.621L356.326,37.5L348.568,37.5L346.116,30.897L330.957,30.897L328.504,37.5Z" style="fill:white;fill-rule:nonzero;"/>
        <path d="M360.277,0.875L367.582,0.875L383.696,24.189L383.696,0.875L390.75,0.875L390.75,37.5L384.445,37.5L367.333,12.635L367.333,37.5L360.277,37.5L360.277,0.875Z" style="fill:white;fill-rule:nonzero;"/>
        <path d="M412.118,10.531C412.118,10.531 406.762,24.941 406.712,24.941L417.469,24.941L412.118,10.531ZM402.059,37.5L394.703,37.5L408.914,0.621L415.668,0.621L429.879,37.5L422.123,37.5L419.67,30.897L404.511,30.897L402.059,37.5Z" style="fill:white;fill-rule:nonzero;"/>
        <path d="M447.492,31.645C453.895,31.645 456.347,28.793 456.347,20.39L456.347,17.99C456.347,9.529 453.895,6.878 447.492,6.878L441.188,6.878L441.188,31.645L447.492,31.645ZM433.832,0.875L447.542,0.875C458.399,0.875 464.105,3.426 464.105,19.184C464.105,34.95 458.399,37.5 447.542,37.5L433.832,37.5L433.832,0.875Z" style="fill:white;fill-rule:nonzero;"/>
        <rect x="470.958" y="0.875" width="7.404" height="36.625" style="fill:white;fill-rule:nonzero;"/>
        <path d="M487.167,0.875L511.539,0.875L511.539,7.326L494.524,7.326L494.524,15.488L507.933,15.488L507.933,21.941L494.524,21.941L494.524,31.198L511.539,31.198L511.539,37.5L487.167,37.5L487.167,0.875Z" style="fill:white;fill-rule:nonzero;"/>
        <path d="M517.742,0.875L525.045,0.875L541.156,24.189L541.156,0.875L548.213,0.875L548.213,37.5L541.91,37.5L524.795,12.635L524.795,37.5L517.742,37.5L517.742,0.875Z" style="fill:white;fill-rule:nonzero;"/>
        <path d="M556.72,0.875L564.023,0.875L580.138,24.189L580.138,0.875L587.191,0.875L587.191,37.5L580.887,37.5L563.776,12.635L563.776,37.5L556.72,37.5L556.72,0.875Z" style="fill:white;fill-rule:nonzero;"/>
        <path d="M595.7,0.875L620.067,0.875L620.067,7.326L603.052,7.326L603.052,15.488L616.461,15.488L616.461,21.941L603.052,21.941L603.052,31.198L620.067,31.198L620.067,37.5L595.7,37.5L595.7,0.875Z" style="fill:white;fill-rule:nonzero;"/>
    </g>
</svg>
