<svg id="Layer_1" data-name="Layer 1" xmlns="http://www.w3.org/2000/svg" viewBox="0 0 320.97 51.62"><defs><style>.cls-1{fill:#fff;}</style></defs><path class="cls-1" d="M0,50.76V1.8H16.78l11.8,40.32h.72V1.8h9.94v49H22.9L10.66,10.44H9.94V50.76Z"/><path class="cls-1" d="M49.9,50.76V1.8H81.58v8.64H59.83V21.89H77.26v8.49H59.83V42.12H81.58v8.64Z"/><path class="cls-1" d="M85.82,1.8H96.26l6,40.46h1.08L112.17,1.8h11.52l8.79,40.46h1.08L139.61,1.8h10.44l-9.36,49h-15l-7.7-37.22-7.71,37.22h-15Z"/><path class="cls-1" d="M171.79,9.58q-7.84,0-7.85,5.18a3.93,3.93,0,0,0,1.95,3.53q1.94,1.22,9.1,3.53T185,27q2.88,2.91,2.88,9,0,7.71-4.68,11.66t-12.24,4a68.07,68.07,0,0,1-13.75-1.72l-2.6-.51,1-7.7A120.35,120.35,0,0,0,170.42,43q7.64,0,7.63-6.33a4.19,4.19,0,0,0-1.76-3.6c-1.18-.87-3.52-1.8-7-2.81q-8.36-2.37-11.77-5.65t-3.42-9.11q0-7.35,4.46-10.94T170.78.94a81.37,81.37,0,0,1,13.54,1.44l2.59.5-.79,7.85Q176,9.58,171.79,9.58Z"/><path class="cls-1" d="M215.13,33.34H201.31V50.76h-4.46V.72h18.28q8,0,11.78,3.89t3.78,12Q230.69,33.33,215.13,33.34Zm-13.82-4h13.82q11,0,11-12.82c0-4.08-.87-7.08-2.59-9S219,4.68,215.13,4.68H201.31Z"/><path class="cls-1" d="M244,31V50.76h-4.46V.72H257.9q7.85,0,11.7,3.56t3.85,11.27q0,12-9.65,14.62l10.3,20.59h-5L259.27,31Zm24.84-15.41c0-3.74-.88-6.5-2.66-8.28s-4.54-2.66-8.28-2.66H244V27.07h13.9Q268.85,27.07,268.84,15.62Z"/><path class="cls-1" d="M321,26.14q0,13.38-4.21,19.36t-15.34,6q-11.12,0-15.33-6.12T281.88,26q0-13.22,4.24-19.62T301.39,0q11,0,15.3,6.37T321,26.14Zm-31.46,16.3q3,5,11.91,5t11.92-4.9q3-4.89,3-16.38T313.19,9.36Q310,4,301.39,4q-8.92,0-12,5.76a20.24,20.24,0,0,0-2.26,6.77,60.59,60.59,0,0,0-.62,9.43Q286.48,37.43,289.51,42.44Z"/></svg>