<svg id="Layer_1" data-name="Layer 1" xmlns="http://www.w3.org/2000/svg" viewBox="0 0 499.31 51.62"><defs><style>.cls-1{fill:#fff;}</style></defs><path class="cls-1" d="M0,50.76V1.8H16.78l11.8,40.32h.72V1.8h9.94v49H22.9L10.66,10.44H9.94V50.76Z"/><path class="cls-1" d="M83.77,45.54Q79.19,51.63,68,51.62T52.31,45.54q-4.58-6.09-4.57-19T52.31,7.24Q56.87.94,68,.94t15.73,6.3q4.58,6.3,4.57,19.26T83.77,45.54ZM60.08,39.2Q62.21,43,68,43t8-3.78q2.11-3.78,2.12-12.67T76,13.61q-2.16-4-7.92-4t-7.92,4Q58,17.65,58,26.53T60.08,39.2Z"/><path class="cls-1" d="M106.34,34.42q0,8.56,8.71,8.56t8.72-8.56V1.8h9.93V34.2q0,9-4.64,13.21t-14,4.21q-9.36,0-14-4.21T96.41,34.2V1.8h9.93Z"/><path class="cls-1" d="M170.42,1.8h10.44l-11.37,49H151.13l-11.38-49h10.44l8.5,40.32h3.24Z"/><path class="cls-1" d="M187.34,50.76V1.8H219v8.64H197.28V21.89H214.7v8.49H197.28V42.12H219v8.64Z"/><path class="cls-1" d="M255.09,50.76H227.23V1.8h9.93V42h17.93Z"/><path class="cls-1" d="M289.08,50.76H261.21V1.8h9.94V42h17.93Z"/><path class="cls-1" d="M295.19,50.76V1.8h31.68v8.64H305.13V21.89h17.43v8.49H305.13V42.12h21.74v8.64Z"/><path class="cls-1" d="M350.13,9.58q-7.85,0-7.85,5.18a3.93,3.93,0,0,0,2,3.53q1.93,1.22,9.1,3.53T363.38,27q2.88,2.91,2.88,9,0,7.71-4.68,11.66t-12.24,4a68.07,68.07,0,0,1-13.75-1.72l-2.6-.51,1-7.7A120.35,120.35,0,0,0,348.76,43q7.64,0,7.63-6.33a4.19,4.19,0,0,0-1.76-3.6c-1.18-.87-3.52-1.8-7-2.81q-8.36-2.37-11.77-5.65t-3.42-9.11q0-7.35,4.46-10.94T349.12.94a81.37,81.37,0,0,1,13.54,1.44l2.59.5-.79,7.85Q354.31,9.58,350.13,9.58Z"/><path class="cls-1" d="M393.47,33.34H379.65V50.76h-4.46V.72h18.28q8,0,11.78,3.89t3.77,12Q409,33.33,393.47,33.34Zm-13.82-4h13.82q10.95,0,10.95-12.82c0-4.08-.87-7.08-2.59-9s-4.52-2.88-8.36-2.88H379.65Z"/><path class="cls-1" d="M422.34,31V50.76h-4.46V.72h18.36q7.85,0,11.7,3.56t3.85,11.27q0,12-9.64,14.62l10.29,20.59h-5L437.61,31Zm24.85-15.41q0-5.61-2.67-8.28t-8.28-2.66h-13.9V27.07h13.9Q447.19,27.07,447.19,15.62Z"/><path class="cls-1" d="M499.31,26.13q0,13.4-4.21,19.37t-15.34,6q-11.11,0-15.33-6.12T460.22,26q0-13.22,4.24-19.62T479.73,0q11,0,15.3,6.37T499.31,26.13ZM467.85,42.44c2,3.34,6,5,11.91,5s9.9-1.63,11.92-4.9,3-8.72,3-16.38-1.05-13.26-3.16-16.81S485.49,4,479.73,4q-8.93,0-12,5.76a20.24,20.24,0,0,0-2.26,6.77,60.59,60.59,0,0,0-.62,9.43Q464.82,37.43,467.85,42.44Z"/></svg>